<?xml version="1.0" ?><!DOCTYPE svg  PUBLIC '-//W3C//DTD SVG 1.1//EN'  'http://www.w3.org/Graphics/SVG/1.1/DTD/svg11.dtd'><svg height="100%" style="fill-rule:evenodd;clip-rule:evenodd;stroke-linejoin:round;stroke-miterlimit:2;" version="1.1" viewBox="0 0 128 128" width="100%" xml:space="preserve" xmlns="http://www.w3.org/2000/svg" xmlns:serif="http://www.serif.com/" xmlns:xlink="http://www.w3.org/1999/xlink"><g id="Icon"/><g><path d="M62,92.535l-4,0l-2,14l8,0l-2,-14Z" style="fill:#424243;"/><path d="M90,110.038c0,-0.864 -0.635,-1.597 -1.49,-1.72c-4.819,-0.688 -20.155,-2.783 -28.51,-2.783c-8.355,0 -23.691,2.095 -28.51,2.784c-0.855,0.123 -1.49,0.856 -1.49,1.719c0,0.001 0,0.002 0,0.003c0,0.389 0.16,0.762 0.442,1.03c0.282,0.269 0.661,0.411 1.05,0.392c4.822,-0.23 20.154,-0.928 28.508,-0.928c8.354,0 23.686,0.698 28.508,0.928c0.389,0.019 0.768,-0.123 1.05,-0.392c0.282,-0.268 0.442,-0.641 0.442,-1.03c0,-0.001 0,-0.002 0,-0.003Z" style="fill:#616262;"/><path d="M110,39.535c0,-1.06 -0.421,-2.078 -1.172,-2.828c-0.75,-0.75 -1.767,-1.172 -2.828,-1.172l-92,0c-1.061,0 -2.078,0.422 -2.828,1.172c-0.751,0.75 -1.172,1.768 -1.172,2.828l0,51c-0,1.061 0.421,2.079 1.172,2.829c0.75,0.75 1.767,1.171 2.828,1.171l92,0c1.061,0 2.078,-0.421 2.828,-1.171c0.751,-0.75 1.172,-1.768 1.172,-2.829l0,-51Z" style="fill:#616262;"/><path d="M107,40.535c-0,-1.104 -0.895,-2 -2,-2c-12.311,0 -77.689,0 -90,0c-1.105,0 -2,0.896 -2,2c-0,7.809 -0,36.192 0,44c0,1.105 0.895,2 2,2c12.311,0 77.689,0 90,0c1.105,0 2,-0.895 2,-2c-0,-7.808 -0,-36.191 0,-44Z" style="fill:#f6f8f9;"/><path d="M107,90.5c-0,-0.398 -0.158,-0.779 -0.439,-1.061c-0.282,-0.281 -0.663,-0.439 -1.061,-0.439c-2.101,-0 -5.899,-0 -8,-0c-0.398,-0 -0.779,0.158 -1.061,0.439c-0.281,0.282 -0.439,0.663 -0.439,1.061c0,0.398 0.158,0.779 0.439,1.061c0.282,0.281 0.663,0.439 1.061,0.439c2.101,-0 5.899,-0 8,-0c0.398,0 0.779,-0.158 1.061,-0.439c0.281,-0.282 0.439,-0.663 0.439,-1.061Z" style="fill:#83d3f6;"/><path d="M99.939,43.475l-36,36c-0.585,0.585 -0.585,1.536 0,2.121c0.586,0.585 1.536,0.585 2.122,0l36,-36c0.585,-0.585 0.585,-1.536 -0,-2.121c-0.586,-0.586 -1.536,-0.586 -2.122,-0Zm-19,-0l-36,36c-0.585,0.585 -0.585,1.536 0,2.121c0.586,0.585 1.536,0.585 2.122,0l36,-36c0.585,-0.585 0.585,-1.536 -0,-2.121c-0.586,-0.586 -1.536,-0.586 -2.122,-0Zm-19,-0l-36,36c-0.585,0.585 -0.585,1.536 0,2.121c0.586,0.585 1.536,0.585 2.122,0l36,-36c0.585,-0.585 0.585,-1.536 -0,-2.121c-0.586,-0.586 -1.536,-0.586 -2.122,-0Zm38,19l-17,17c-0.585,0.585 -0.585,1.536 0,2.121c0.586,0.585 1.536,0.585 2.122,0l17,-17c0.585,-0.585 0.585,-1.536 -0,-2.121c-0.586,-0.586 -1.536,-0.586 -2.122,-0Zm-57,-19l-25,25c-0.585,0.585 -0.585,1.536 0,2.121c0.586,0.585 1.536,0.585 2.122,0l25,-25c0.585,-0.585 0.585,-1.536 -0,-2.121c-0.586,-0.586 -1.536,-0.586 -2.122,-0Zm-19,-0l-6,6c-0.585,0.585 -0.585,1.536 0,2.121c0.586,0.585 1.536,0.585 2.122,0l6,-6c0.585,-0.585 0.585,-1.536 -0,-2.121c-0.586,-0.586 -1.536,-0.586 -2.122,-0Z" style="fill:#fbef57;"/><circle cx="100" cy="34.535" r="18" style="fill:#41b3e6;"/><path d="M100,40c-1.197,0 -2.169,0.972 -2.169,2.169c0,1.197 0.972,2.169 2.169,2.169c1.197,-0 2.169,-0.972 2.169,-2.169c-0,-1.197 -0.972,-2.169 -2.169,-2.169Zm-3.96,-1.721c0.915,-1.184 2.349,-1.948 3.96,-1.948c1.611,-0 3.045,0.764 3.96,1.948c0.675,0.874 1.932,1.035 2.805,0.36c0.874,-0.675 1.035,-1.932 0.36,-2.805c-1.646,-2.131 -4.227,-3.503 -7.125,-3.503c-2.898,-0 -5.479,1.372 -7.125,3.503c-0.675,0.873 -0.514,2.13 0.36,2.805c0.873,0.675 2.13,0.514 2.805,-0.36Zm-4.226,-5.689c1.81,-2.575 4.803,-4.259 8.186,-4.259c3.383,-0 6.376,1.684 8.186,4.259c0.635,0.902 1.884,1.12 2.787,0.485c0.903,-0.635 1.12,-1.884 0.485,-2.786c-2.533,-3.603 -6.723,-5.958 -11.458,-5.958c-4.735,-0 -8.925,2.355 -11.458,5.958c-0.635,0.902 -0.418,2.151 0.485,2.786c0.903,0.635 2.152,0.417 2.787,-0.485Z" style="fill:#fff;"/></g><g><path d="M62.712,104.595c-0.962,-0.039 -1.872,-0.06 -2.712,-0.06c-0.84,0 -1.749,0.021 -2.712,0.06l-0,-0.001c-0.001,0 0.35,-2.453 0.35,-2.453c0.078,-0.546 -0.302,-1.053 -0.849,-1.131c-0.546,-0.078 -1.053,0.302 -1.131,0.849l-0.406,2.838c-8.534,0.505 -19.875,2.056 -23.903,2.632c-0.001,-0 -0.001,-0 -0.002,-0c-1.336,0.192 -2.331,1.33 -2.346,2.678l0.001,-0.035l-0.002,0.069c0,0.663 0.272,1.297 0.752,1.754c0.48,0.458 1.126,0.699 1.788,0.667c4.814,-0.23 20.12,-0.927 28.46,-0.927c3.269,0 7.609,0.108 11.967,0.252c0.552,0.018 1.014,-0.415 1.032,-0.967c0.019,-0.551 -0.414,-1.014 -0.966,-1.032c-4.382,-0.145 -8.746,-0.253 -12.033,-0.253c-8.368,0 -23.725,0.699 -28.555,0.929c-0,0 -0.001,0 -0.001,0c-0.115,0.006 -0.229,-0.036 -0.313,-0.116c-0.081,-0.078 -0.128,-0.184 -0.131,-0.295l-0.001,0.022l0.001,-0.037c0,-0.366 0.27,-0.677 0.633,-0.73c4.796,-0.685 20.054,-2.773 28.367,-2.773c8.314,0 23.574,2.088 28.369,2.773c0.362,0.052 0.63,0.362 0.631,0.727l-0,0.004c-0,0.116 -0.048,0.228 -0.132,0.308c-0.085,0.08 -0.198,0.123 -0.315,0.117c0,0 -0,-0 -0.001,-0c-2.352,-0.112 -7.197,-0.335 -12.515,-0.535c-0.551,-0.02 -1.016,0.411 -1.036,0.962c-0.021,0.552 0.41,1.016 0.962,1.037c5.309,0.199 10.146,0.422 12.494,0.534c0.662,0.032 1.31,-0.209 1.79,-0.667c0.478,-0.455 0.75,-1.086 0.753,-1.746l-0.001,0.027l0.001,-0.024l-0,-0.015c0,-1.361 -0.999,-2.514 -2.346,-2.708c0,-0 -0,-0.001 -0.001,-0.001c-4.027,-0.575 -15.372,-2.126 -23.905,-2.631l-1.309,-9.162l11.561,0c0.552,0 1,-0.448 1,-1c0,-0.552 -0.448,-1 -1,-1c0,0 -46.849,0 -61,0c-0.796,0 -1.559,-0.316 -2.121,-0.878c-0.563,-0.563 -0.879,-1.326 -0.879,-2.122c0,-10.761 0,-40.239 -0,-51c-0,-1.656 1.343,-3 3,-3c0,0 64,0 64,0c0.552,0 1,-0.448 1,-1c0,-0.552 -0.448,-1 -1,-1l-64,0c-2.761,0 -5,2.239 -5,5c0,10.761 0,40.239 0,51c-0,1.326 0.527,2.598 1.464,3.536c0.938,0.938 2.21,1.464 3.536,1.464l42.561,0l-0.332,2.324c-0.078,0.546 0.303,1.053 0.849,1.131c0.546,0.078 1.053,-0.302 1.131,-0.849l0.373,-2.606c-0,0 2.836,0 2.836,0c0,0 1.295,9.06 1.295,9.06l-0.001,-0Zm-31.713,5.501c-0.004,0.064 -0.014,0.126 -0.029,0.187c-0.016,0.061 -0.037,0.121 -0.064,0.179c0.058,-0.124 0.086,-0.244 0.093,-0.366Zm58.001,-0.061l0,0.002l0.003,-0.074c-0.002,0.024 -0.003,0.048 -0.003,0.072Zm-10,-14.5l27,0c2.761,0 5,-2.238 5,-5c0,-10.228 0,-36.535 0,-36.535c-0,-0.552 -0.448,-1 -1,-1c-0.552,0 -1,0.448 -1,1c0,0 0,26.307 0,36.535c0,1.657 -1.343,3 -3,3c-0,0 -27,0 -27,0c-0.552,0 -1,0.448 -1,1c0,0.552 0.448,1 1,1Z"/><path d="M37,87.535l68,0c1.657,0 3,-1.343 3,-3l-0,-29.535c0,-0.552 -0.448,-1 -1,-1c-0.552,-0 -1,0.448 -1,1l-0,29.535c-0,0.553 -0.448,1 -1,1c-11.433,0 -68,0 -68,0c-0.552,0 -1,0.448 -1,1c0,0.552 0.448,1 1,1Zm41,-50l-63,0c-0.796,0 -1.559,0.316 -2.121,0.879c-0.563,0.563 -0.879,1.326 -0.879,2.121c-0,7.809 -0,36.192 0,44c0,0.796 0.316,1.559 0.879,2.122c0.562,0.562 1.325,0.878 2.121,0.878c5.065,0 18,0 18,0c0.552,0 1,-0.448 1,-1c-0,-0.552 -0.448,-1 -1,-1c-0,0 -12.935,0 -18,0c-0.265,0 -0.52,-0.105 -0.707,-0.293c-0.188,-0.187 -0.293,-0.441 -0.293,-0.707c-0,-7.808 -0,-36.191 -0,-44c0,-0.265 0.105,-0.519 0.293,-0.707c0.187,-0.187 0.442,-0.293 0.707,-0.293l63,0c0.552,0 1,-0.448 1,-1c-0,-0.552 -0.448,-1 -1,-1Z"/><path d="M106,90.535c0,0.133 -0.053,0.26 -0.146,0.354c-0.094,0.094 -0.221,0.146 -0.354,0.146l-8,0c-0.133,0 -0.26,-0.052 -0.354,-0.146c-0.093,-0.094 -0.146,-0.221 -0.146,-0.354c0,-0 0,-0.001 -0,-0.002c-0,-0.275 0.223,-0.498 0.498,-0.498c0,0 0.335,0 0.502,0c0.639,0 1.001,-0.503 1,-0.973c-0.001,-0.471 -0.31,-1.027 -1.006,-1.027l-0.496,0c-1.38,0 -2.498,1.119 -2.498,2.498c0,0.001 0,0.002 0,0.002c0,0.663 0.263,1.299 0.732,1.768c0.469,0.469 1.105,0.732 1.768,0.732c2.101,0 5.899,0 8,0c0.663,0 1.299,-0.263 1.768,-0.732c0.469,-0.469 0.732,-1.105 0.732,-1.768c-0,-0.663 -0.263,-1.299 -0.732,-1.767c-0.469,-0.469 -1.105,-0.733 -1.768,-0.733l-3.5,0c-0.552,0 -1,0.448 -1,1c-0,0.552 0.448,1 1,1l3.5,0c0.133,0 0.26,0.053 0.354,0.147c0.093,0.094 0.146,0.221 0.146,0.353Z"/><path d="M23.707,49.364l3.061,-3.061c0.975,-0.976 0.975,-2.56 -0,-3.535c-0.976,-0.976 -2.56,-0.976 -3.536,-0c0,-0 -6,6 -6,6c-0.975,0.975 -0.975,2.559 0,3.535c0.976,0.976 2.56,0.976 3.536,0c0.39,-0.39 0.39,-1.024 -0,-1.414c-0.39,-0.39 -1.024,-0.39 -1.414,-0c-0.196,0.195 -0.512,0.195 -0.708,-0c-0.195,-0.195 -0.195,-0.512 0,-0.707c0,-0 6,-6 6,-6c0.196,-0.195 0.512,-0.195 0.708,-0c0.195,0.195 0.195,0.512 -0,0.707c-0,-0 -3.061,3.061 -3.061,3.061c-0.39,0.39 -0.39,1.024 -0,1.414c0.39,0.39 1.024,0.39 1.414,-0Z"/><path d="M39.293,45.707l-22.061,22.061c-0.975,0.975 -0.975,2.559 0,3.535c0.976,0.976 2.56,0.976 3.536,0c-0,0 25,-25 25,-25c0.975,-0.976 0.975,-2.56 -0,-3.535c-0.976,-0.976 -2.56,-0.976 -3.536,-0c-0.39,0.39 -0.39,1.024 0,1.414c0.39,0.39 1.024,0.39 1.414,-0c0.196,-0.195 0.512,-0.195 0.708,-0c0.195,0.195 0.195,0.512 -0,0.707c-0,-0 -25,25 -25,25c-0.196,0.195 -0.512,0.195 -0.708,-0c-0.195,-0.195 -0.195,-0.512 0,-0.707c0,-0 22.061,-22.061 22.061,-22.061c0.39,-0.39 0.39,-1.024 0,-1.414c-0.39,-0.39 -1.024,-0.39 -1.414,-0Z"/><path d="M58.707,52.364l6.061,-6.061c0.975,-0.976 0.975,-2.56 -0,-3.535c-0.976,-0.976 -2.56,-0.976 -3.536,-0c0,-0 -36,36 -36,36c-0.975,0.975 -0.975,2.559 0,3.535c0.976,0.976 2.56,0.976 3.536,0c-0,0 26.939,-26.939 26.939,-26.939c0.39,-0.39 0.39,-1.024 0,-1.414c-0.39,-0.391 -1.024,-0.391 -1.414,-0l-26.939,26.939c-0.196,0.195 -0.512,0.195 -0.708,-0c-0.195,-0.195 -0.195,-0.512 0,-0.707c0,-0 36,-36 36,-36c0.196,-0.195 0.512,-0.195 0.708,-0c0.195,0.195 0.195,0.512 -0,0.707c-0,-0 -6.061,6.061 -6.061,6.061c-0.39,0.39 -0.39,1.024 -0,1.414c0.39,0.39 1.024,0.39 1.414,-0Z"/><path d="M80.232,42.768l-36,36c-0.975,0.975 -0.975,2.559 0,3.535c0.976,0.976 2.56,0.976 3.536,0c-0,0 9.939,-9.939 9.939,-9.939c0.39,-0.39 0.39,-1.024 0,-1.414c-0.39,-0.391 -1.024,-0.391 -1.414,-0l-9.939,9.939c-0.196,0.195 -0.512,0.195 -0.708,-0c-0.195,-0.195 -0.195,-0.512 0,-0.707c0,-0 36,-36 36,-36c0.391,-0.39 0.391,-1.024 0,-1.414c-0.39,-0.391 -1.024,-0.391 -1.414,-0Zm-19.525,26.596l22,-22c0.39,-0.39 0.39,-1.024 0,-1.414c-0.39,-0.391 -1.024,-0.391 -1.414,-0l-22,22c-0.39,0.39 -0.39,1.024 -0,1.414c0.39,0.39 1.024,0.39 1.414,-0Z"/><path d="M78.707,63.293l-15.475,15.475c-0.975,0.975 -0.975,2.559 0,3.535c0.976,0.976 2.56,0.976 3.536,0c-0,0 26.596,-26.596 26.596,-26.596c0.39,-0.39 0.39,-1.024 -0,-1.414c-0.39,-0.39 -1.024,-0.39 -1.414,-0l-26.596,26.596c-0.196,0.195 -0.512,0.195 -0.708,-0c-0.195,-0.195 -0.195,-0.512 0,-0.707c0,-0 15.475,-15.475 15.475,-15.475c0.39,-0.39 0.39,-1.024 0,-1.414c-0.39,-0.39 -1.024,-0.39 -1.414,-0Zm10,-10l-7,7c-0.39,0.39 -0.39,1.024 -0,1.414c0.39,0.39 1.024,0.39 1.414,0l7,-7c0.39,-0.39 0.39,-1.024 0,-1.414c-0.39,-0.39 -1.024,-0.39 -1.414,-0Z"/><path d="M102.768,65.303c0.975,-0.976 0.975,-2.56 -0,-3.535c-0.976,-0.976 -2.56,-0.976 -3.536,-0c0,-0 -17,17 -17,17c-0.975,0.975 -0.975,2.559 0,3.535c0.976,0.976 2.56,0.976 3.536,0c-0,0 13.939,-13.939 13.939,-13.939c0.39,-0.39 0.39,-1.024 0,-1.414c-0.39,-0.391 -1.024,-0.391 -1.414,-0l-13.939,13.939c-0.196,0.195 -0.512,0.195 -0.708,-0c-0.195,-0.195 -0.195,-0.512 0,-0.707c0,-0 17,-17 17,-17c0.196,-0.195 0.512,-0.195 0.708,-0c0.195,0.195 0.195,0.512 -0,0.707c-0.391,0.39 -0.391,1.024 -0,1.414c0.39,0.39 1.024,0.39 1.414,0Z"/><path d="M113.83,44.418c-3.085,4.308 -8.132,7.117 -13.83,7.117c-9.383,0 -17,-7.617 -17,-17c0,-9.382 7.617,-17 17,-17c9.383,0 17,7.618 17,17c0,2.152 -0.4,4.21 -1.131,6.105c-0.198,0.515 0.059,1.095 0.574,1.293c0.515,0.199 1.094,-0.058 1.292,-0.573c0.817,-2.119 1.265,-4.42 1.265,-6.825c0,-10.486 -8.514,-19 -19,-19c-10.486,0 -19,8.514 -19,19c0,10.487 8.514,19 19,19c6.368,0 12.008,-3.139 15.456,-7.953c0.322,-0.448 0.218,-1.074 -0.23,-1.395c-0.449,-0.321 -1.074,-0.218 -1.396,0.231Z"/><path d="M100,39c-1.749,0 -3.169,1.42 -3.169,3.169c0,1.749 1.42,3.169 3.169,3.169c1.749,-0 3.169,-1.42 3.169,-3.169c-0,-1.749 -1.42,-3.169 -3.169,-3.169Zm0,2c0.645,0 1.169,0.524 1.169,1.169c-0,0.645 -0.524,1.169 -1.169,1.169c-0.645,-0 -1.169,-0.524 -1.169,-1.169c0,-0.645 0.524,-1.169 1.169,-1.169Z"/><path d="M103.334,31.901c-1.043,-0.369 -2.165,-0.57 -3.334,-0.57c-3.22,-0 -6.087,1.524 -7.916,3.891c-1.013,1.311 -0.771,3.196 0.54,4.209c1.31,1.012 3.195,0.77 4.208,-0.54c0.732,-0.948 1.879,-1.56 3.168,-1.56c1.289,-0 2.436,0.612 3.168,1.56c1.013,1.31 2.898,1.552 4.208,0.54c1.311,-1.013 1.553,-2.898 0.54,-4.209c-0.374,-0.485 -0.793,-0.934 -1.249,-1.343c-0.411,-0.368 -1.044,-0.333 -1.412,0.078c-0.368,0.411 -0.333,1.044 0.078,1.412c0.365,0.327 0.7,0.688 1.001,1.076c0.337,0.437 0.256,1.065 -0.18,1.403c-0.437,0.337 -1.066,0.257 -1.403,-0.18c-1.098,-1.421 -2.818,-2.337 -4.751,-2.337c-1.933,-0 -3.653,0.916 -4.751,2.337c-0.337,0.437 -0.966,0.517 -1.403,0.18c-0.436,-0.338 -0.517,-0.966 -0.18,-1.403c1.464,-1.894 3.758,-3.114 6.334,-3.114c0.935,-0 1.832,0.16 2.666,0.455c0.521,0.184 1.093,-0.089 1.277,-0.609c0.184,-0.52 -0.089,-1.092 -0.609,-1.276Z"/><path d="M100,29.331c3.045,-0 5.739,1.517 7.368,3.834c0.953,1.354 2.826,1.68 4.18,0.728c1.354,-0.952 1.681,-2.825 0.728,-4.18c-2.714,-3.86 -7.203,-6.382 -12.276,-6.382c-5.073,-0 -9.562,2.522 -12.276,6.382c-0.953,1.355 -0.626,3.228 0.728,4.18c1.354,0.952 3.227,0.626 4.18,-0.728c0.945,-1.344 2.247,-2.419 3.769,-3.084c0.505,-0.222 0.736,-0.812 0.515,-1.317c-0.221,-0.506 -0.811,-0.737 -1.317,-0.516c-1.858,0.813 -3.449,2.125 -4.603,3.766c-0.318,0.452 -0.942,0.561 -1.394,0.243c-0.451,-0.317 -0.56,-0.942 -0.242,-1.393c2.353,-3.346 6.243,-5.533 10.64,-5.533c4.397,-0 8.287,2.187 10.64,5.533c0.318,0.451 0.209,1.076 -0.242,1.393c-0.452,0.318 -1.076,0.209 -1.394,-0.243c-1.991,-2.831 -5.283,-4.683 -9.004,-4.683c-0.552,-0 -1,0.448 -1,1c0,0.552 0.448,1 1,1Z"/></g></svg>